<?xml version="1.0" encoding="UTF-8" ?>
<!DOCTYPE svg PUBLIC "-//W3C//DTD SVG 1.1//EN" "http://www.w3.org/Graphics/SVG/1.1/DTD/svg11.dtd">
<svg width="177pt" height="76pt" viewBox="0 0 177 76" version="1.1" xmlns="http://www.w3.org/2000/svg">
<g id="#ffffffff">
<path fill="#ffffff" opacity="1.00" d=" M 38.85 0.00 L 45.31 0.00 C 49.40 0.54 54.15 1.83 56.14 5.86 C 58.00 10.01 56.14 14.99 52.98 17.98 C 51.02 20.11 47.91 19.68 45.31 20.04 C 47.76 17.81 51.05 15.70 51.30 12.05 C 52.17 5.45 44.59 -0.25 38.46 2.09 C 33.25 3.49 30.40 8.76 28.85 13.55 C 27.03 20.58 27.57 28.12 29.68 35.02 C 26.35 34.80 23.04 34.37 19.77 33.74 C 21.80 25.29 22.53 16.14 27.67 8.83 C 31.06 3.79 36.85 0.88 42.77 0.01 L 38.85 0.00 Z" />
<path fill="#ffffff" opacity="1.00" d=" M 54.12 20.04 C 57.46 21.25 61.19 22.84 62.45 26.49 C 63.81 31.73 60.60 37.21 56.46 40.25 C 50.27 43.69 42.99 44.57 36.01 44.90 C 28.31 45.60 20.55 43.59 12.90 45.24 C 8.65 45.76 4.81 47.69 0.83 49.12 C 1.81 45.32 3.76 41.88 5.52 38.40 C 7.07 35.37 10.88 34.77 13.95 34.81 C 24.68 35.37 35.17 39.24 45.99 38.03 C 50.97 37.47 56.74 34.52 57.36 29.01 C 58.18 25.60 56.49 22.37 54.12 20.04 Z" />
<path fill="#ffffff" opacity="1.00" d=" M 67.00 26.25 C 68.51 26.24 70.01 26.22 71.52 26.21 C 71.08 27.92 70.64 29.64 70.26 31.36 C 73.05 29.42 75.27 25.69 79.11 26.06 C 79.78 26.70 80.42 27.36 81.03 28.05 C 79.46 29.23 77.67 29.91 76.10 28.24 C 75.12 29.00 74.13 29.74 73.14 30.48 C 74.50 30.79 75.81 31.23 77.08 31.80 C 77.17 33.47 77.11 35.13 76.88 36.79 C 78.10 36.64 79.69 36.79 80.33 35.46 C 81.55 32.51 82.14 29.33 82.97 26.24 C 84.49 26.23 86.00 26.23 87.52 26.23 C 86.76 29.72 85.37 33.08 85.11 36.66 C 86.38 36.96 87.74 36.58 88.28 35.30 C 89.45 32.37 90.03 29.25 90.84 26.22 C 92.37 26.22 93.90 26.23 95.43 26.25 C 94.31 30.34 93.20 34.43 92.20 38.56 C 97.34 37.08 95.37 30.89 99.05 28.04 C 101.42 26.02 106.28 24.68 108.21 27.85 C 108.73 29.61 106.70 29.94 105.66 30.65 C 105.66 29.77 105.67 28.02 105.68 27.14 C 101.77 27.79 100.53 32.59 100.72 35.97 C 102.67 38.15 106.72 36.66 108.43 34.62 C 109.49 31.91 110.02 29.04 110.74 26.23 C 112.27 26.23 113.81 26.23 115.36 26.24 C 114.42 29.53 113.57 32.85 112.77 36.19 C 113.89 36.74 115.00 37.30 116.10 37.89 C 113.46 39.44 109.39 40.03 107.99 36.58 C 104.69 39.22 99.57 40.45 96.16 37.31 C 94.83 38.07 93.47 38.78 92.09 39.45 C 91.25 41.65 90.60 44.55 87.93 45.15 C 85.72 46.17 81.39 45.21 82.29 42.07 C 83.84 40.09 86.51 39.66 88.50 38.25 C 85.74 38.71 82.65 39.98 80.43 37.56 C 78.42 38.94 75.76 39.97 73.51 38.44 C 71.25 37.49 74.11 33.45 71.94 32.66 C 68.56 32.62 69.06 36.62 68.24 38.87 C 66.70 38.90 65.17 38.92 63.63 38.95 C 64.76 34.72 65.91 30.49 67.00 26.25 Z" />
<path fill="#ffffff" opacity="1.00" d=" M 118.65 26.23 C 120.18 26.23 121.72 26.23 123.26 26.23 C 122.35 29.57 121.39 32.91 120.71 36.31 C 121.94 37.32 123.87 36.65 124.40 35.23 C 125.62 32.31 126.13 29.16 126.95 26.12 C 128.66 26.22 130.37 26.34 132.05 26.65 C 135.06 25.33 137.58 26.74 139.76 28.76 C 137.15 31.48 137.20 35.49 136.08 38.91 C 134.56 38.91 133.05 38.91 131.53 38.91 C 132.26 35.40 133.77 32.00 133.79 28.37 C 132.40 28.26 130.98 28.94 130.52 30.32 C 129.56 33.20 128.89 36.17 128.09 39.09 C 125.39 38.80 122.67 38.22 120.00 39.07 C 117.84 39.77 116.81 37.26 115.37 36.20 C 117.36 33.24 117.69 29.58 118.65 26.23 Z" />
<path fill="#ffffff" opacity="1.00" d=" M 138.94 27.05 C 141.48 26.00 144.40 25.71 146.56 27.69 C 146.12 30.74 145.21 33.68 144.68 36.71 C 146.00 36.65 148.23 36.87 148.34 34.98 C 149.00 31.03 151.36 26.46 155.85 26.19 C 158.67 26.41 161.49 26.34 164.31 26.16 C 163.44 29.42 162.46 32.65 161.78 35.96 C 162.28 36.42 163.27 37.34 163.77 37.80 C 162.27 38.77 160.66 39.57 158.86 38.88 C 158.11 37.91 157.28 37.02 156.39 36.18 C 158.14 33.76 158.59 30.72 159.09 27.85 C 154.54 26.72 152.97 32.69 153.15 36.12 C 154.51 36.66 155.86 37.22 157.18 37.85 C 154.45 39.40 150.93 39.89 148.74 37.25 C 146.61 39.17 143.15 40.13 140.85 37.94 C 139.69 35.05 141.89 32.03 141.98 29.06 C 140.96 28.39 139.95 27.72 138.94 27.05 Z" />
<path fill="#ffffff" opacity="1.00" d=" M 167.42 27.04 C 171.03 28.22 175.12 29.94 176.31 33.95 C 177.43 40.55 172.51 47.43 166.14 49.19 C 158.07 51.74 149.45 52.49 141.02 52.07 C 131.99 50.71 122.74 52.40 114.52 56.26 C 115.58 52.31 117.58 48.69 119.47 45.09 C 121.19 42.17 125.04 41.82 128.09 41.87 C 139.10 42.44 149.97 46.79 161.06 44.87 C 166.00 44.13 171.17 40.46 171.26 35.05 C 171.77 31.80 169.79 29.00 167.42 27.04 Z" />
<path fill="#ffffff" opacity="1.00" d=" M 27.60 61.04 C 28.59 60.47 29.62 59.74 30.83 60.16 C 31.90 61.65 31.66 63.52 31.73 65.24 C 32.33 63.04 32.29 59.90 35.35 59.87 C 34.97 61.06 34.54 62.23 34.06 63.38 C 35.07 64.34 36.21 65.15 37.26 66.07 C 37.19 68.16 36.73 70.21 36.52 72.29 C 32.54 72.22 35.85 67.63 35.16 65.28 C 32.16 66.98 34.83 72.54 30.53 72.32 C 30.96 70.02 31.44 67.73 31.61 65.39 C 28.52 67.02 30.87 72.54 26.51 72.33 C 27.74 69.43 27.40 65.32 31.12 64.25 C 30.95 62.27 29.17 61.73 27.60 61.04 Z" />
<path fill="#ffffff" opacity="1.00" d=" M 36.20 61.79 C 35.79 60.58 37.92 59.21 38.80 60.33 C 39.84 61.91 37.15 62.97 36.20 61.79 Z" />
<path fill="#ffffff" opacity="1.00" d=" M 122.72 59.32 C 121.59 63.22 120.00 67.11 120.37 71.27 C 122.85 70.94 123.45 68.14 121.05 67.03 C 123.42 65.03 123.09 61.87 123.20 59.09 C 125.06 61.56 123.78 64.41 123.25 67.04 C 125.09 66.09 126.36 64.37 128.21 63.45 C 128.30 64.80 127.56 66.89 129.60 66.94 C 131.81 67.37 131.01 70.50 131.80 72.13 C 128.37 72.90 128.85 69.52 128.42 67.30 C 127.18 69.15 127.61 72.60 124.57 72.31 C 124.80 70.24 126.02 68.02 124.83 66.02 C 124.50 67.01 123.85 68.98 123.53 69.97 C 123.01 72.48 118.35 72.96 118.11 70.08 C 117.86 66.08 119.37 61.73 122.72 59.32 Z" />
<path fill="#ffffff" opacity="1.00" d=" M 148.28 60.42 C 148.89 60.42 150.10 60.42 150.71 60.42 C 149.46 63.33 149.59 66.91 147.40 69.33 C 147.23 66.33 147.84 63.37 148.28 60.42 Z" />
<path fill="#ffffff" opacity="1.00" d=" M 38.56 70.10 C 39.29 67.83 38.33 63.41 41.94 63.75 C 41.54 66.45 40.34 69.28 41.94 71.84 C 40.65 71.92 38.07 72.22 38.56 70.10 Z" />
<path fill="#ffffff" opacity="1.00" d=" M 43.32 64.04 C 43.88 64.03 45.01 63.99 45.57 63.98 C 45.13 66.16 44.68 68.35 44.23 70.54 C 44.86 70.31 46.12 69.85 46.75 69.62 C 50.00 71.15 50.01 66.89 49.48 64.75 C 48.23 65.54 47.04 66.43 45.80 67.24 C 47.23 65.81 48.47 63.14 50.92 64.08 C 53.21 65.79 51.85 68.57 50.66 70.48 C 52.08 72.41 50.99 74.31 49.82 76.00 L 47.36 76.00 C 47.07 75.46 46.49 74.38 46.20 73.84 C 47.03 74.21 47.85 74.57 48.68 74.94 C 48.30 73.40 49.62 70.18 46.98 70.74 C 45.67 71.18 44.41 71.77 43.07 72.13 C 41.01 69.85 43.20 66.67 43.32 64.04 Z" />
<path fill="#ffffff" opacity="1.00" d=" M 54.53 64.15 C 57.48 62.63 56.23 65.94 56.36 67.60 C 57.84 66.28 57.94 63.68 60.33 63.57 C 59.94 65.99 59.50 68.40 59.12 70.82 L 61.22 71.35 C 60.38 71.55 58.70 71.95 57.86 72.15 C 56.84 70.79 57.23 69.02 57.04 67.45 C 55.55 68.46 55.57 70.34 54.98 71.84 C 54.27 71.92 52.84 72.08 52.13 72.16 C 53.18 69.57 53.86 66.86 54.53 64.15 Z" />
<path fill="#ffffff" opacity="1.00" d=" M 62.48 64.08 C 63.04 64.05 64.17 63.98 64.74 63.95 C 64.61 64.51 64.34 65.64 64.21 66.20 C 67.85 65.53 68.83 69.86 65.71 71.55 C 65.28 69.94 64.89 68.32 64.46 66.72 C 64.19 67.53 63.67 69.15 63.41 69.96 C 64.24 70.67 65.06 71.40 65.87 72.15 C 63.78 72.48 62.02 71.40 60.23 70.59 C 61.63 68.67 62.06 66.35 62.48 64.08 Z" />
<path fill="#ffffff" opacity="1.00" d=" M 71.58 69.84 C 72.23 67.57 71.45 63.44 74.93 63.75 C 74.32 66.57 73.76 69.46 74.73 72.28 C 73.38 72.06 71.08 71.78 71.58 69.84 Z" />
<path fill="#ffffff" opacity="1.00" d=" M 76.37 63.98 C 76.92 63.99 78.02 64.02 78.57 64.03 C 78.10 66.25 77.64 68.48 77.26 70.73 C 78.41 70.03 79.57 69.34 80.73 68.65 L 80.78 71.49 C 83.03 69.26 81.68 64.39 85.54 63.58 C 85.20 66.47 89.08 71.52 84.52 72.40 C 84.24 70.10 84.06 67.79 83.72 65.49 C 83.12 67.61 82.94 69.88 81.95 71.88 C 79.72 70.87 76.36 73.18 75.07 70.70 C 75.29 68.42 75.91 66.21 76.37 63.98 Z" />
<path fill="#ffffff" opacity="1.00" d=" M 87.66 69.87 C 89.24 68.19 87.66 65.92 88.47 63.97 C 89.17 63.98 90.57 64.00 91.28 64.01 C 90.71 66.77 89.55 69.79 91.20 72.41 C 89.39 72.34 88.21 71.49 87.66 69.87 Z" />
<path fill="#ffffff" opacity="1.00" d=" M 92.79 72.22 C 91.54 69.38 91.91 65.47 95.03 64.02 C 97.09 63.31 97.76 65.73 98.98 66.85 L 99.28 64.85 C 100.63 64.38 102.00 63.99 103.40 63.67 C 103.67 65.27 103.49 66.83 102.88 68.33 C 102.46 67.24 102.06 66.14 101.69 65.04 C 101.27 65.72 100.44 67.09 100.03 67.77 C 100.68 68.12 101.34 68.47 102.00 68.81 L 99.41 69.94 C 100.73 71.12 102.38 70.81 103.95 70.54 C 104.35 68.36 104.75 66.17 105.18 64.00 C 107.09 64.02 109.01 64.01 110.90 64.34 C 109.75 66.97 111.29 72.20 107.26 72.31 C 107.65 69.73 108.22 67.16 108.35 64.54 C 106.10 66.33 106.54 69.52 105.87 72.04 C 103.15 71.05 100.29 72.48 97.65 71.20 C 96.03 71.55 94.42 71.94 92.79 72.22 M 95.22 65.32 C 94.99 65.88 94.53 67.01 94.31 67.58 C 94.43 67.75 94.66 68.09 94.78 68.25 C 94.65 69.08 94.53 69.92 94.41 70.75 C 96.39 71.59 98.41 70.12 98.55 67.92 C 97.35 67.15 96.09 66.47 95.22 65.32 Z" />
<path fill="#ffffff" opacity="1.00" d=" M 111.30 63.80 C 115.66 63.29 113.88 67.86 113.42 70.30 L 115.10 70.86 C 113.99 71.43 112.86 71.96 111.71 72.45 C 111.12 69.57 112.40 66.60 111.30 63.80 Z" />
<path fill="#ffffff" opacity="1.00" d=" M 129.21 65.74 C 129.71 63.04 134.13 64.88 136.20 63.99 C 135.22 66.58 135.73 69.43 135.03 72.02 C 133.83 71.93 132.80 71.43 131.94 70.52 C 132.48 69.24 133.55 66.68 134.09 65.41 C 132.65 65.61 131.21 65.78 129.77 65.91 L 129.21 65.74 Z" />
<path fill="#ffffff" opacity="1.00" d=" M 137.64 64.58 C 138.16 64.29 139.21 63.71 139.74 63.42 C 139.42 65.82 138.99 68.19 138.67 70.58 C 138.47 72.51 137.58 74.28 136.76 76.00 L 134.00 76.00 C 133.82 74.79 133.73 73.57 133.65 72.36 C 134.10 72.86 135.01 73.88 135.46 74.39 C 135.82 71.06 136.63 67.78 137.64 64.58 Z" />
<path fill="#ffffff" opacity="1.00" d=" M 139.88 69.85 C 140.34 67.22 141.58 63.24 145.06 63.99 C 146.64 64.96 145.38 66.33 144.80 67.47 L 144.29 64.42 C 142.75 66.34 142.40 68.76 142.39 71.14 L 145.60 70.45 C 143.72 73.26 140.87 71.71 139.04 70.03 L 139.88 69.85 Z" />
<path fill="#ffffff" opacity="1.00" d=" M 146.19 70.16 C 147.22 68.79 149.76 70.35 148.53 71.80 C 147.53 73.24 144.98 71.58 146.19 70.16 Z" />
</g>
</svg>
